<svg width="43" height="43" viewBox="0 0 43 43" fill="none" xmlns="http://www.w3.org/2000/svg">
<g clip-path="url(#clip0)">
<path d="M8.71183 21.3142C7.85591 19.8317 8.36856 17.9185 9.85106 17.0626L20.6329 10.8377L22.9113 2.33433L25.6068 0.778115L38.0565 22.3417L35.3611 23.8979L26.8577 21.6195L16.0759 27.8444C15.3611 28.2571 14.5115 28.3689 13.7142 28.1553C12.9168 27.9416 12.237 27.42 11.8243 26.7051L9.12881 28.2613L6.01638 22.8704L8.71183 21.3142ZM26.4966 27.2189L30.3872 33.9575L26.344 36.2918L20.2027 30.8526L18.4103 31.8875L16.854 29.1921L27.6358 22.9672L29.1921 25.6627L26.4966 27.2189Z" fill="#A41BE4"/>
</g>
<defs>
<clipPath id="clip0">
<rect width="31.1244" height="31.1244" fill="white" transform="translate(0 15.5622) rotate(-30)"/>
</clipPath>
</defs>
</svg>
