<svg width="356" height="95" viewBox="0 0 356 95" fill="none" xmlns="http://www.w3.org/2000/svg">
<g clip-path="url(#clip0)">
<rect width="356" height="95" rx="4" fill="#A41BE4"/>
<g opacity="0.4">
<path d="M59.5241 146.735C52.8141 120.388 112.126 78.9515 146.571 61.049C174.115 46.7329 179.564 50.6833 207.301 35.084C256.433 7.45037 255.818 -14.2178 292.322 -31.9935C321.153 -46.0335 369.059 -55.6583 399.296 -39.7821C451.561 -12.3399 452.904 92.2931 399.296 149.062C308.803 244.884 71.5467 193.942 59.5241 146.735Z" fill="#FAE4F1"/>
<path d="M236.97 52.9656C236.97 52.9656 226.202 48.371 230.797 38.6081C230.797 38.6081 228.931 26.8345 236.97 24.9678C236.97 24.9678 249.748 12.7641 256.353 33.2957C256.353 33.2957 265.686 35.4491 264.107 46.0739C264.107 46.0739 280.042 58.8521 256.783 68.9017C256.783 68.9017 257.071 56.8412 257.79 56.266C258.508 55.6908 260.372 48.9201 253.482 47.1377H250.18C250.18 47.1377 248.169 40.3306 248.169 38.8948C248.169 37.4591 248.887 36.8846 248.887 36.8846C248.887 36.8846 252.785 34.7313 249.544 32.2901L248.169 32.4336C248.169 32.4336 243.719 28.4135 243.144 26.1166C243.144 26.1166 235.966 25.83 237.258 34.1568C237.258 34.1568 237.147 41.5383 243.144 42.4835L243.718 48.658C243.718 48.658 238.406 49.5201 236.97 52.9658" fill="#F78D1D"/>
<path d="M236.97 52.9656C236.97 52.9656 226.202 48.371 230.797 38.6081C230.797 38.6081 228.931 26.8345 236.97 24.9678C236.97 24.9678 249.748 12.7641 256.353 33.2957C256.353 33.2957 265.686 35.4491 264.107 46.0739C264.107 46.0739 280.042 58.8521 256.783 68.9017C256.783 68.9017 257.071 56.8412 257.79 56.266C258.508 55.6908 260.372 48.9201 253.482 47.1377H250.18C250.18 47.1377 248.169 40.3306 248.169 38.8948C248.169 37.4591 248.887 36.8846 248.887 36.8846C248.887 36.8846 252.785 34.7313 249.544 32.2901L248.169 32.4336C248.169 32.4336 243.719 28.4135 243.144 26.1166C243.144 26.1166 235.966 25.83 237.258 34.1568C237.258 34.1568 237.147 41.5383 243.144 42.4835L243.718 48.658C243.718 48.658 238.406 49.5199 236.97 52.9656Z" stroke="#080909" stroke-width="0.0574018" stroke-miterlimit="10"/>
<path d="M232.662 61.5804L231.083 60.2889L239.282 50.2969L241.075 49.2721L243.716 48.6572C243.716 48.6572 241.85 58.539 250.179 47.1371C251.321 46.9474 252.487 46.9474 253.629 47.1371C256.463 47.6693 259.797 49.7837 257.788 56.2665L256.783 68.9022C256.783 68.9022 254.784 79.6697 258.368 88.4278L235.677 86.2744L235.821 74.3573L235.677 64.3069L232.662 61.5804Z" fill="#FFAE60"/>
<path d="M184.565 139.398L202.942 104.366C202.942 104.366 197.917 96.7565 202.942 94.6031C202.942 94.6031 202.655 91.731 235.677 86.2751L258.368 88.4285C258.368 88.4285 261.665 104.222 252.906 103.791L225.196 103.504C225.196 103.504 219.74 109.678 216.725 108.242L232.087 133.655C232.087 133.655 232.806 137.388 235.677 138.394C238.548 139.401 238.548 140.835 238.548 140.835C238.548 140.835 234.673 149.881 235.964 152.895L229.655 152.321L231.083 147.152C231.083 147.152 230.939 140.26 225.484 136.528L209.834 115.564L207.25 121.164L189.59 142.988C189.59 142.988 186.718 146.435 188.298 148.014C189.878 149.593 187.581 152.177 187.581 152.177L171.644 152.895V151.603L180.114 147.294C180.114 147.294 184.134 144.136 184.565 139.398" fill="#FC257E"/>
<path d="M239.126 50.474L235.678 64.309L231.083 60.2879L237.659 51.7484L239.126 50.474Z" fill="#FC7B22"/>
<path d="M242.247 59.5767L243.125 60.4757L249.012 66.4965L258.256 56.2496C258.256 56.2496 261.619 49.6095 253.819 47.1054L242.247 59.5767Z" fill="#FC7B22"/>
<path d="M216.08 70.1586C216.08 70.1586 236.324 68.4987 236.755 67.7672C237.187 67.0357 243.1 60.4851 243.1 60.4851L248.027 65.6694L241.062 72.7429C241.062 72.7429 239.268 74.8974 235.104 73.7129L217.695 74.068L216.08 70.1586Z" fill="#FFE1C4"/>
<path d="M232.054 61.1367C232.054 61.1367 230.202 65.5288 229.656 65.2057L215.31 69.7287L216.078 70.1589L235.729 68.0821L235.678 64.3082L232.054 61.1367Z" fill="#FAD0AC"/>
<path d="M202.943 104.365C202.943 104.365 204.882 98.0485 208.004 97.7254L238.467 86.5396L258.369 88.428C258.369 88.428 262.397 103.863 253.46 104.365C244.522 104.867 225.198 103.504 225.198 103.504C225.198 103.504 220.926 109.175 216.726 108.242L213.172 108.344L209.835 115.564L207.251 121.165L189.591 142.987L184.565 139.398L202.943 104.365Z" fill="#FF6AA8"/>
<path d="M218.3 75.5015L217.846 74.4075L210.013 55.5122C210.013 55.5122 209.795 52.6773 206.161 52.6038C202.527 52.5303 181.01 52.6038 181.01 52.6038C181.01 52.6038 176.867 52.1682 178.685 56.7479C180.503 61.3275 187.698 76.1553 187.698 76.1553H218.736L218.3 75.5015Z" fill="#D8D8D8"/>
<path d="M233.165 74.2828C233.165 74.2828 234.888 75.5067 233.165 76.2971L218.521 76.0086L217.642 74.2828H233.165Z" fill="#808080"/>
<path d="M200.09 64.7084C200.025 65.1203 199.839 65.5035 199.556 65.8097C199.273 66.1159 198.906 66.3313 198.5 66.4286C198.095 66.526 197.669 66.5009 197.278 66.3565C196.887 66.2122 196.547 65.9551 196.302 65.6178C196.057 65.2804 195.918 64.8779 195.901 64.4613C195.885 64.0446 195.992 63.6324 196.21 63.2769C196.428 62.9214 196.747 62.6384 197.125 62.4639C197.504 62.2893 197.926 62.231 198.338 62.2962C198.611 62.3394 198.874 62.436 199.11 62.5806C199.346 62.7252 199.551 62.915 199.714 63.139C199.877 63.363 199.994 63.617 200.058 63.8863C200.123 64.1556 200.134 64.4349 200.09 64.7084Z" fill="white"/>
<path d="M225.197 103.503H259.584L271.966 64.1478C271.966 64.1478 277.244 57.2362 280.258 63.6974C280.258 63.6974 281.228 67.2148 280.258 68.9019L267.229 113.016L245.8 112.716L228.678 112.477C228.678 112.477 217.946 111.22 225.197 103.503Z" fill="#6E36DE"/>
<path d="M264.327 88.4283L242.678 89.1106C242.678 89.1106 229.432 90.5453 229.217 103.503L231.083 103.711C231.083 103.711 232.232 92.3413 242.678 91.3713C253.123 90.4013 263.622 90.6688 263.622 90.6688L264.327 88.8956V88.4283Z" fill="#2A1C54"/>
<path d="M146.518 76.0811H233.501C233.501 76.0811 237.066 77.5158 233.501 79.5267H146.518C146.518 79.5267 143.79 77.8035 146.518 76.0811Z" fill="#CFA386"/>
<path d="M148.097 152.176L148.24 79.5276H150.825V105.515L228.356 105.945V79.527H231.083V152.45H228.642L228.355 108.098H150.681L150.394 152.45L148.097 152.176Z" fill="#80604E"/>
<path d="M243.616 49.3639C243.616 49.3639 242.211 57.8926 250.178 47.1369L248.169 38.8954C248.169 38.8954 247.936 37.592 248.887 36.8862C249.837 36.1804 252.354 34.8753 249.544 32.2907L248.169 32.4349C248.169 32.4349 243.646 28.1988 243.142 26.1169C243.142 26.1169 235.892 25.9734 237.256 34.1571C237.256 34.1571 237.4 42.0541 243.142 42.485L243.717 48.6596L243.616 49.3639Z" fill="#FFCD9C"/>
<path d="M330.681 108.437C330.681 108.437 333.221 82.4875 338.982 80.3571" stroke="#297426" stroke-width="0.143505" stroke-miterlimit="10"/>
<path d="M328.249 114.005C328.249 114.005 325.068 77.6526 328.249 73.489" stroke="#297426" stroke-width="0.143505" stroke-miterlimit="10"/>
<path d="M323.097 115.988C323.097 115.988 318.593 85.8429 316.282 84.3567" stroke="#297426" stroke-width="0.143505" stroke-miterlimit="10"/>
<path d="M320.879 126.858C320.879 126.858 312.626 113.283 317.097 104.688C321.567 96.0924 309.188 79.0712 309.188 79.0712C309.188 79.0712 319.504 77.1792 320.88 91.2768C321.425 96.8785 323.166 101.499 324.418 105.888C326.319 112.545 327.096 118.666 320.88 126.858" fill="#C3DDBC"/>
<path d="M323.801 106.327C323.801 106.327 319.577 75.7833 323.267 72.8416C323.267 72.8416 335.555 56.9516 332.803 70.4873C331.797 75.4405 330.331 82.6237 329.055 90.1561C328.689 92.3121 328.337 94.4967 328.02 96.6637C326.581 106.429 325.763 115.879 326.951 120.985C327.078 121.556 327.255 122.116 327.48 122.656C331.084 131.102 320.081 127.571 320.081 127.571L318.362 122.656L323.801 106.327Z" fill="#A6E695"/>
<path d="M338.696 74.9576C338.696 74.9576 326.765 88.1946 325.559 95.8382C324.354 103.482 321.024 115.688 324.97 118.619C328.915 121.55 324.791 122.925 324.791 122.925L333.807 127.739C333.807 127.739 340.853 106.402 334.559 94.7678C334.559 94.7678 353.373 66.8782 338.698 74.9581" fill="#9DCF90"/>
<path d="M240.883 39.3447C240.883 39.3447 243.599 39.3549 243.609 37.3083" stroke="#E67015" stroke-width="0.574018" stroke-miterlimit="10" stroke-linecap="round"/>
<path d="M166.913 69.9219C166.913 69.9219 169.052 69.7026 168.809 71.6641C168.566 73.6256 167.47 74.3635 166.444 73.6482L166.698 72.9328C166.698 72.9328 169.605 72.2754 166.871 70.822L166.913 69.9219Z" fill="#4A4949"/>
<path d="M160.735 67.9704C160.735 67.9704 160.366 74.904 162.673 76.1787H165.257C165.257 76.1787 166.1 75.5066 166.652 73.6474C166.964 72.5384 167.121 71.3916 167.119 70.2396C167.125 69.4817 167.089 68.7241 167.009 67.9704H160.735Z" fill="#80370E"/>
<path d="M162.027 62.6552C162.027 62.6552 161.006 63.5801 161.817 64.5639C162.628 65.5478 161.523 66.4524 161.523 66.4524" stroke="#7D7D7D" stroke-width="0.574018" stroke-miterlimit="10"/>
<path d="M164.135 63.2319C164.135 63.2319 163.114 64.1573 163.925 65.1412C164.736 66.125 163.631 67.0299 163.631 67.0299" stroke="#7D7D7D" stroke-width="0.574018" stroke-miterlimit="10"/>
<path d="M166.057 62.2681C166.057 62.2681 165.035 63.1935 165.846 64.1773C166.657 65.1611 165.552 66.0658 165.552 66.0658" stroke="#7D7D7D" stroke-width="0.574018" stroke-miterlimit="10"/>
</g>
<path d="M38.656 45.136C37.288 45.136 36.208 46.336 36.208 47.8C36.208 49.264 37.312 50.464 38.656 50.464C40.024 50.464 41.104 49.264 41.104 47.8C41.128 46.336 40.024 45.136 38.656 45.136ZM47.416 45.136C46.048 45.136 44.968 46.336 44.968 47.8C44.968 49.264 46.072 50.464 47.416 50.464C48.784 50.464 49.864 49.264 49.864 47.8C49.864 46.336 48.784 45.136 47.416 45.136Z" fill="white"/>
<path d="M59.08 25H26.92C24.208 25 22 27.208 22 29.944V62.392C22 65.128 24.208 67.336 26.92 67.336H54.136L52.864 62.896L55.936 65.752L58.84 68.44L64 73V29.944C64 27.208 61.792 25 59.08 25ZM49.816 56.344C49.816 56.344 48.952 55.312 48.232 54.4C51.376 53.512 52.576 51.544 52.576 51.544C51.592 52.192 50.656 52.648 49.816 52.96C48.616 53.464 47.464 53.8 46.336 53.992C44.2805 54.3704 42.1725 54.3623 40.12 53.968C38.915 53.7322 37.7341 53.3868 36.592 52.936C35.99 52.7045 35.4046 52.4319 34.84 52.12C34.768 52.072 34.696 52.048 34.624 52C34.576 51.976 34.552 51.952 34.528 51.928C34.096 51.688 33.856 51.52 33.856 51.52C33.856 51.52 35.008 53.44 38.056 54.352C37.336 55.264 36.448 56.344 36.448 56.344C31.144 56.176 29.128 52.696 29.128 52.696C29.128 44.968 32.584 38.704 32.584 38.704C36.04 36.112 39.328 36.184 39.328 36.184L39.568 36.472C35.248 37.72 33.256 39.616 33.256 39.616C33.256 39.616 33.784 39.328 34.672 38.92C37.24 37.792 39.28 37.48 40.12 37.408C40.264 37.384 40.384 37.36 40.528 37.36C44.6898 36.7967 48.9225 37.5877 52.6 39.616C52.6 39.616 50.704 37.816 46.624 36.568L46.96 36.184C46.96 36.184 50.248 36.112 53.704 38.704C53.704 38.704 57.16 44.968 57.16 52.696C57.16 52.696 55.12 56.176 49.816 56.344Z" fill="white"/>
<path d="M83.3912 51.9981C83.3912 53.1592 82.8553 53.7398 81.9398 53.7398C80.9573 53.7398 80.3767 53.0922 80.3767 51.7524H76.5806C76.5806 55.2806 78.8359 57.1563 82.0514 57.1563C85.1553 57.1563 87.2097 55.3699 87.2097 51.9981V41.3243H83.3912V51.9981ZM102.486 50.7699C102.486 46.8175 99.6726 44.3612 96.0105 44.3612C92.3707 44.3612 89.5348 46.8175 89.5348 50.7699C89.5348 54.7223 92.3037 57.1786 95.9658 57.1786C99.6279 57.1786 102.486 54.7223 102.486 50.7699ZM93.4202 50.7699C93.4202 48.6486 94.626 47.6661 96.0105 47.6661C97.3503 47.6661 98.6008 48.6486 98.6008 50.7699C98.6008 52.8689 97.3279 53.8738 95.9658 53.8738C94.5814 53.8738 93.4202 52.8689 93.4202 50.7699ZM104.512 57H108.33V44.5399H104.512V57ZM106.432 43.2447C107.772 43.2447 108.688 42.3292 108.688 41.1904C108.688 40.0292 107.772 39.1137 106.432 39.1137C105.07 39.1137 104.155 40.0292 104.155 41.1904C104.155 42.3292 105.07 43.2447 106.432 43.2447ZM119.695 57H123.491V49.7204C123.491 46.3709 121.57 44.4059 118.69 44.4059C117.015 44.4059 115.675 45.1428 114.916 46.1923V44.5399H111.098V57H114.916V50.234C114.916 48.5369 115.854 47.5991 117.305 47.5991C118.757 47.5991 119.695 48.5369 119.695 50.234V57ZM131.479 52.668C131.479 55.9058 133.288 57 135.878 57H137.821V53.7621H136.459C135.61 53.7621 135.297 53.4495 135.297 52.7126V47.7107H137.798V44.5399H135.297V41.503H131.479V44.5399H129.961V47.7107H131.479V52.668ZM139.948 57H143.766V50.234C143.766 48.5369 144.704 47.5991 146.155 47.5991C147.607 47.5991 148.545 48.5369 148.545 50.234V57H152.341V49.7204C152.341 46.3709 150.443 44.4059 147.607 44.4059C145.887 44.4059 144.525 45.1428 143.766 46.2146V40.4758H139.948V57ZM160.487 47.4204C161.76 47.4204 162.832 48.202 162.832 49.5641H158.054C158.277 48.1796 159.237 47.4204 160.487 47.4204ZM166.45 52.8689H162.386C162.073 53.5388 161.47 54.0748 160.398 54.0748C159.17 54.0748 158.165 53.3155 158.031 51.6855H166.673C166.718 51.3058 166.74 50.9262 166.74 50.569C166.74 46.7729 164.172 44.3612 160.532 44.3612C156.825 44.3612 154.235 46.8175 154.235 50.7699C154.235 54.7223 156.87 57.1786 160.532 57.1786C163.636 57.1786 165.847 55.3029 166.45 52.8689ZM183.87 50.1447H180.163L180.788 47.2195H184.495L183.87 50.1447ZM182.396 57H185.969L186.706 53.5835H190.122V50.1447H187.443L188.068 47.2195H191.551V43.7806H188.782L189.497 40.4758H185.924L185.21 43.7806H181.503L182.217 40.4758H178.645L177.93 43.7806H173.978V47.2195H177.215L176.59 50.1447H172.548V53.5835H175.853L175.116 57H178.689L179.426 53.5835H183.133L182.396 57ZM195.778 57H199.976L202.008 48.9165L203.973 57H208.194L211.566 44.5399H207.97L206.229 53.4049L204.107 44.5399H200.066L197.967 53.4495L196.203 44.5399H192.384L195.778 57ZM213.625 52.668C213.625 55.9058 215.433 57 218.024 57H219.966V53.7621H218.604C217.756 53.7621 217.443 53.4495 217.443 52.7126V47.7107H219.944V44.5399H217.443V41.503H213.625V44.5399H212.106V47.7107H213.625V52.668ZM221.58 56.7767H232.789V53.6728H226.76C229.351 51.6855 232.544 48.8272 232.544 45.2544C232.544 42.5078 230.891 40.3418 227.185 40.3418C224.215 40.3418 221.647 42.0389 221.535 45.9913H225.22C225.22 44.4505 225.889 43.5573 227.028 43.5573C228.189 43.5573 228.725 44.3166 228.725 45.5C228.725 48.2466 225.041 51.0825 221.58 53.9408V56.7767ZM236.279 57H240.254V40.6991H234.069V44.2496H236.279V57ZM253.851 41.3243H247.978V57H253.851C258.853 57 262.068 53.8068 262.068 49.1622C262.068 44.4952 258.853 41.3243 253.851 41.3243ZM251.796 53.6952V44.5845H253.605C256.486 44.5845 258.183 46.2816 258.183 49.1622C258.183 52.0427 256.486 53.6952 253.605 53.6952H251.796ZM264.202 57H268.02V44.5399H264.202V57ZM266.122 43.2447C267.462 43.2447 268.378 42.3292 268.378 41.1904C268.378 40.0292 267.462 39.1137 266.122 39.1137C264.76 39.1137 263.845 40.0292 263.845 41.1904C263.845 42.3292 264.76 43.2447 266.122 43.2447ZM280.903 53.3825C280.836 48.7379 274.092 50.1447 274.092 48.1573C274.092 47.5544 274.584 47.1971 275.477 47.1971C276.549 47.1971 277.196 47.7554 277.308 48.6039H280.836C280.59 46.1476 278.804 44.3612 275.589 44.3612C272.328 44.3612 270.52 46.103 270.52 48.2243C270.52 52.802 277.308 51.3505 277.308 53.3602C277.308 53.9185 276.794 54.3651 275.812 54.3651C274.762 54.3651 273.981 53.7845 273.891 52.9136H270.118C270.296 55.3252 272.529 57.1786 275.856 57.1786C278.983 57.1786 280.903 55.5485 280.903 53.3825ZM282.48 50.7699C282.48 54.7223 285.07 57.1786 288.732 57.1786C291.859 57.1786 294.069 55.3699 294.717 52.4893H290.653C290.318 53.4049 289.715 53.9185 288.665 53.9185C287.303 53.9185 286.365 52.8466 286.365 50.7699C286.365 48.6932 287.303 47.6214 288.665 47.6214C289.715 47.6214 290.34 48.1796 290.653 49.0505H294.717C294.069 46.0806 291.859 44.3612 288.732 44.3612C285.07 44.3612 282.48 46.8398 282.48 50.7699ZM308.951 50.7699C308.951 46.8175 306.138 44.3612 302.476 44.3612C298.836 44.3612 296 46.8175 296 50.7699C296 54.7223 298.769 57.1786 302.431 57.1786C306.093 57.1786 308.951 54.7223 308.951 50.7699ZM299.885 50.7699C299.885 48.6486 301.091 47.6661 302.476 47.6661C303.816 47.6661 305.066 48.6486 305.066 50.7699C305.066 52.8689 303.793 53.8738 302.431 53.8738C301.047 53.8738 299.885 52.8689 299.885 50.7699ZM314.796 51.2165C314.796 49.0728 315.845 48.4476 317.654 48.4476H318.703V44.4059C317.029 44.4059 315.666 45.2991 314.796 46.6165V44.5399H310.977V57H314.796V51.2165ZM319.769 50.7476C319.769 54.6777 322.203 57.1786 325.262 57.1786C327.094 57.1786 328.411 56.3524 329.103 55.2136V57H332.922V40.4758H329.103V46.2593C328.344 45.1204 326.915 44.3612 325.262 44.3612C322.203 44.3612 319.769 46.8175 319.769 50.7476ZM329.103 50.7699C329.103 52.7573 327.83 53.8515 326.379 53.8515C324.95 53.8515 323.655 52.735 323.655 50.7476C323.655 48.7602 324.95 47.6884 326.379 47.6884C327.83 47.6884 329.103 48.7826 329.103 50.7699ZM337.024 51.4622H340.262L340.708 40.7661H336.577L337.024 51.4622ZM340.954 55.1243C340.954 53.9408 340.038 53.0253 338.699 53.0253C337.337 53.0253 336.421 53.9408 336.421 55.1243C336.421 56.2631 337.337 57.1786 338.699 57.1786C340.038 57.1786 340.954 56.2631 340.954 55.1243Z" fill="white"/>
</g>
<defs>
<clipPath id="clip0">
<rect width="356" height="95" rx="4" fill="white"/>
</clipPath>
</defs>
</svg>
