<svg width="24" height="22" viewBox="0 0 24 22" fill="none" xmlns="http://www.w3.org/2000/svg">
<path d="M12.6934 5.97488C12.3602 5.97488 12.0407 6.10724 11.8051 6.34284C11.5695 6.57844 11.4371 6.89798 11.4371 7.23117C11.4371 7.56435 11.5695 7.88389 11.8051 8.11949C12.0407 8.35509 12.3602 8.48745 12.6934 8.48745H17.7185C18.0517 8.48745 18.3713 8.35509 18.6069 8.11949C18.8425 7.88389 18.9748 7.56435 18.9748 7.23117C18.9748 6.89798 18.8425 6.57844 18.6069 6.34284C18.3713 6.10724 18.0517 5.97488 17.7185 5.97488H12.6934Z" fill="#A41BE4" fill-opacity="0.4"/>
<path d="M12.6934 17.2814C12.3602 17.2814 12.0407 17.4138 11.8051 17.6494C11.5695 17.885 11.4371 18.2045 11.4371 18.5377C11.4371 18.8709 11.5695 19.1904 11.8051 19.426C12.0407 19.6616 12.3602 19.794 12.6934 19.794H17.7185C18.0517 19.794 18.3713 19.6616 18.6069 19.426C18.8425 19.1904 18.9748 18.8709 18.9748 18.5377C18.9748 18.2045 18.8425 17.885 18.6069 17.6494C18.3713 17.4138 18.0517 17.2814 17.7185 17.2814H12.6934Z" fill="#A41BE4" fill-opacity="0.4"/>
<path d="M12.6934 2.20602C12.3602 2.20602 12.0407 2.33838 11.8051 2.57398C11.5695 2.80958 11.4371 3.12912 11.4371 3.46231C11.4371 3.79549 11.5695 4.11503 11.8051 4.35063C12.0407 4.58623 12.3602 4.71859 12.6934 4.71859H22.7437C23.0769 4.71859 23.3964 4.58623 23.632 4.35063C23.8676 4.11503 24 3.79549 24 3.46231C24 3.12912 23.8676 2.80958 23.632 2.57398C23.3964 2.33838 23.0769 2.20602 22.7437 2.20602H12.6934Z" fill="#A41BE4"/>
<path d="M12.6934 13.5126C12.3602 13.5126 12.0407 13.6449 11.8051 13.8805C11.5695 14.1161 11.4371 14.4357 11.4371 14.7689C11.4371 15.102 11.5695 15.4216 11.8051 15.6572C12.0407 15.8928 12.3602 16.0251 12.6934 16.0251H22.7437C23.0769 16.0251 23.3964 15.8928 23.632 15.6572C23.8676 15.4216 24 15.102 24 14.7689C24 14.4357 23.8676 14.1161 23.632 13.8805C23.3964 13.6449 23.0769 13.5126 22.7437 13.5126H12.6934Z" fill="#A41BE4"/>
<path d="M1.25628 0.952271C0.923095 0.952271 0.603555 1.08463 0.367956 1.32023C0.132358 1.55583 0 1.87537 0 2.20855V8.48996C0 8.82315 0.132358 9.14269 0.367956 9.37829C0.603555 9.61388 0.923095 9.74624 1.25628 9.74624H7.53769C7.87088 9.74624 8.19042 9.61388 8.42601 9.37829C8.66161 9.14269 8.79397 8.82315 8.79397 8.48996V2.20855C8.79397 1.87537 8.66161 1.55583 8.42601 1.32023C8.19042 1.08463 7.87088 0.952271 7.53769 0.952271H1.25628Z" fill="#A41BE4"/>
<path d="M1.25628 12.2538C0.923095 12.2538 0.603555 12.3861 0.367956 12.6217C0.132358 12.8573 0 13.1769 0 13.5101V19.7915C0 20.1247 0.132358 20.4442 0.367956 20.6798C0.603555 20.9154 0.923095 21.0478 1.25628 21.0478H7.53769C7.87088 21.0478 8.19042 20.9154 8.42601 20.6798C8.66161 20.4442 8.79397 20.1247 8.79397 19.7915V13.5101C8.79397 13.1769 8.66161 12.8573 8.42601 12.6217C8.19042 12.3861 7.87088 12.2538 7.53769 12.2538H1.25628Z" fill="#A41BE4"/>
</svg>
