<svg width="112" height="87" viewBox="0 0 112 87" fill="none" xmlns="http://www.w3.org/2000/svg">
<rect width="112" height="87" rx="4" fill="#FC257E"/>
<path d="M56.269 31.8463C53.8318 31.8463 51.843 33.8352 51.843 36.2723C51.843 38.7094 53.8318 40.6983 56.269 40.6983C58.7061 40.6983 60.6949 38.7094 60.6949 36.2723C60.6949 33.8352 58.7061 31.8463 56.269 31.8463ZM69.5436 36.2723C69.5436 34.4395 69.5602 32.6233 69.4572 30.7938C69.3543 28.6688 68.8695 26.7828 67.3156 25.2289C65.7584 23.6717 63.8758 23.1902 61.7508 23.0873C59.918 22.9844 58.1018 23.001 56.2723 23.001C54.4395 23.001 52.6233 22.9844 50.7938 23.0873C48.6688 23.1902 46.7828 23.675 45.2289 25.2289C43.6717 26.7861 43.1902 28.6688 43.0873 30.7938C42.9844 32.6266 43.001 34.4428 43.001 36.2723C43.001 38.1018 42.9844 39.9213 43.0873 41.7508C43.1902 43.8758 43.675 45.7617 45.2289 47.3156C46.7861 48.8729 48.6688 49.3543 50.7938 49.4572C52.6266 49.5602 54.4428 49.5436 56.2723 49.5436C58.1051 49.5436 59.9213 49.5602 61.7508 49.4572C63.8758 49.3543 65.7617 48.8695 67.3156 47.3156C68.8729 45.7584 69.3543 43.8758 69.4572 41.7508C69.5635 39.9213 69.5436 38.1051 69.5436 36.2723ZM56.269 43.0822C52.5004 43.0822 49.459 40.0408 49.459 36.2723C49.459 32.5037 52.5004 29.4623 56.269 29.4623C60.0375 29.4623 63.0789 32.5037 63.0789 36.2723C63.0789 40.0408 60.0375 43.0822 56.269 43.0822ZM63.3578 30.7738C62.4779 30.7738 61.7674 30.0633 61.7674 29.1834C61.7674 28.3035 62.4779 27.593 63.3578 27.593C64.2377 27.593 64.9483 28.3035 64.9483 29.1834C64.9485 29.3923 64.9076 29.5993 64.8277 29.7924C64.7479 29.9854 64.6307 30.1609 64.483 30.3086C64.3353 30.4563 64.1598 30.5735 63.9668 30.6533C63.7737 30.7331 63.5668 30.7741 63.3578 30.7738Z" fill="white"/>
<path d="M16.9769 69.0931C18.8247 69.0931 19.8616 66.9661 19.8616 64.9189C19.8616 62.2869 18.0404 60.479 15.0361 60.479C11.1279 60.479 8.32296 63.4434 8.32296 67.232C8.32296 69.9305 10.2239 71.6454 13.0953 71.6454C14.0125 71.6454 14.9032 71.4859 15.7008 71.1535L15.5412 70.3293C14.8633 70.6484 14.0657 70.7813 13.3346 70.7813C10.8354 70.7813 9.31996 69.4919 9.33326 67.1256C9.33326 63.8688 11.6729 61.3297 14.8899 61.3297C17.4289 61.3297 18.8779 62.6724 18.8779 64.9854C18.8779 66.3812 18.3063 68.2689 17.163 68.2689C16.4851 68.2689 16.3787 67.7637 16.4984 67.006L17.163 63.1642H16.1129L15.9666 63.9884C15.6742 63.3503 15.1026 63.0313 14.2651 63.0313C12.3243 63.0313 10.9949 64.8259 10.9949 66.8066C10.9949 68.1891 11.7925 69.0931 13.1617 69.0931C14.0923 69.0931 14.9962 68.6278 15.5412 67.8568C15.6077 68.6012 16.073 69.0931 16.9769 69.0931ZM15.7008 65.7165C15.621 67.0858 14.6905 68.1492 13.5207 68.1492C12.5901 68.1492 12.1249 67.5244 12.1249 66.6205C12.1249 65.3045 12.9358 63.9618 14.2651 63.9618C15.302 63.9618 15.7805 64.7461 15.7008 65.7165ZM21.3996 65.331C21.3996 67.5909 22.9017 69.1196 24.8558 69.1196C26.1852 69.1196 27.129 68.4417 27.5677 67.6308V69H28.7906V59.1629H27.5677V63.018C27.0625 62.1805 26.0123 61.5956 24.8691 61.5956C22.9017 61.5956 21.3996 63.0579 21.3996 65.331ZM27.5677 65.3443C27.5677 67.0592 26.4244 68.0562 25.0951 68.0562C23.7658 68.0562 22.6358 67.0459 22.6358 65.331C22.6358 63.6162 23.7658 62.6458 25.0951 62.6458C26.4244 62.6458 27.5677 63.6561 27.5677 65.3443ZM36.0725 67.0193C36.0193 64.4138 31.792 65.3576 31.792 63.6295C31.792 63.0446 32.3238 62.6192 33.2144 62.6192C34.1848 62.6192 34.7432 63.1509 34.7963 63.8821H36.006C35.9263 62.4597 34.8628 61.5956 33.2543 61.5956C31.6325 61.5956 30.5823 62.5129 30.5823 63.6295C30.5823 66.3413 34.8894 65.3975 34.8894 67.0193C34.8894 67.6175 34.3576 68.0961 33.4005 68.0961C32.3769 68.0961 31.7522 67.5643 31.6857 66.8598H30.4361C30.5159 68.1891 31.7123 69.1196 33.4138 69.1196C35.0223 69.1196 36.0725 68.2157 36.0725 67.0193ZM37.3282 65.3443C37.3282 67.6574 38.8037 69.1196 40.8775 69.1196C42.6854 69.1196 43.8685 68.1093 44.2407 66.6604H42.938C42.6721 67.5776 41.9543 68.0961 40.8775 68.0961C39.5482 68.0961 38.5645 67.1522 38.5645 65.3443C38.5645 63.563 39.5482 62.6192 40.8775 62.6192C41.9543 62.6192 42.6854 63.1775 42.938 64.0549H44.2407C43.8685 62.5261 42.6854 61.5956 40.8775 61.5956C38.8037 61.5956 37.3282 63.0579 37.3282 65.3443ZM44.9908 61.7153L47.8488 69H49.2579L52.116 61.7153H50.8265L48.5667 67.8834L46.2935 61.7153H44.9908ZM53.3064 69H54.5161V61.7153H53.3064V69ZM53.9311 60.5321C54.3698 60.5321 54.7287 60.1732 54.7287 59.708C54.7287 59.2427 54.3698 58.8838 53.9311 58.8838C53.4659 58.8838 53.107 59.2427 53.107 59.708C53.107 60.1732 53.4659 60.5321 53.9311 60.5321ZM56.8436 67.006C56.8436 68.4683 57.5748 69 58.8642 69H59.9543V67.9764H59.0636C58.3192 67.9764 58.0533 67.7238 58.0533 67.006V62.7123H59.9543V61.7153H58.0533V59.8808H56.8436V61.7153H55.8998V62.7123H56.8436V67.006ZM60.5559 61.7153L63.414 69H64.8231L67.6811 61.7153H66.3917L64.1318 67.8834L61.8586 61.7153H60.5559ZM71.9688 62.6192C73.2184 62.6192 74.2819 63.4035 74.2686 64.8259H69.6691C69.802 63.4035 70.7857 62.6192 71.9688 62.6192ZM75.3719 66.7534H74.0692C73.8033 67.5377 73.1121 68.0961 72.022 68.0961C70.7857 68.0961 69.7489 67.2852 69.6558 65.8096H75.4783C75.5049 65.557 75.5182 65.3443 75.5182 65.0785C75.5182 63.0845 74.1357 61.5956 72.022 61.5956C69.8951 61.5956 68.4195 63.0446 68.4195 65.3443C68.4195 67.6574 69.9483 69.1196 72.022 69.1196C73.8299 69.1196 74.9997 68.0828 75.3719 66.7534ZM77.1149 69H78.3246V59.1629H77.1149V69ZM80.3863 69H81.596V59.1629H80.3863V69ZM90.5703 65.3443C90.5703 63.0446 88.9618 61.5956 86.888 61.5956C84.8275 61.5956 83.2058 63.0446 83.2058 65.3443C83.2058 67.6574 84.7744 69.1196 86.8348 69.1196C88.9086 69.1196 90.5703 67.6574 90.5703 65.3443ZM84.442 65.3443C84.442 63.5099 85.5986 62.6458 86.8747 62.6458C88.1243 62.6458 89.334 63.5099 89.334 65.3443C89.334 67.1921 88.0977 68.0562 86.8348 68.0562C85.572 68.0562 84.442 67.1921 84.442 65.3443ZM93.3705 65.0386C93.3705 63.3503 94.2478 62.8319 95.4044 62.8319H95.7234V61.5823C94.5669 61.5823 93.7826 62.0875 93.3705 62.8984V61.7153H92.1608V69H93.3705V65.0386ZM100.217 62.6192C101.467 62.6192 102.53 63.4035 102.517 64.8259H97.9174C98.0504 63.4035 99.0341 62.6192 100.217 62.6192ZM103.62 66.7534H102.318C102.052 67.5377 101.36 68.0961 100.27 68.0961C99.0341 68.0961 97.9972 67.2852 97.9041 65.8096H103.727C103.753 65.557 103.766 65.3443 103.766 65.0785C103.766 63.0845 102.384 61.5956 100.27 61.5956C98.1434 61.5956 96.6679 63.0446 96.6679 65.3443C96.6679 67.6574 98.1966 69.1196 100.27 69.1196C102.078 69.1196 103.248 68.0828 103.62 66.7534Z" fill="white"/>
</svg>
