<svg width="112" height="87" viewBox="0 0 112 87" fill="none" xmlns="http://www.w3.org/2000/svg">
<rect width="112" height="87" rx="4" fill="#FC9F25"/>
<path d="M47.4667 26C46.282 26 45.1459 26.4706 44.3083 27.3083C43.4706 28.1459 43 29.282 43 30.4667V30.9156L56.4 38.1315L69.8 30.9178V30.4667C69.8 29.282 69.3294 28.1459 68.4917 27.3083C67.6541 26.4706 66.518 26 65.3333 26H47.4667Z" fill="white"/>
<path d="M69.8 33.4526L56.9293 40.3827C56.7666 40.4702 56.5848 40.5161 56.4 40.5161C56.2152 40.5161 56.0334 40.4702 55.8707 40.3827L43 33.4526V43.8667C43 45.0513 43.4706 46.1874 44.3083 47.0251C45.1459 47.8627 46.282 48.3333 47.4667 48.3333H65.3333C66.518 48.3333 67.6541 47.8627 68.4917 47.0251C69.3294 46.1874 69.8 45.0513 69.8 43.8667V33.4526Z" fill="white"/>
<path d="M9.70025 64.6116C9.70025 66.3291 10.8419 67.491 12.327 67.491C13.3373 67.491 14.0546 66.9757 14.388 66.3594V67.4H15.3175V59.9239H14.388V62.8537C14.0041 62.2172 13.206 61.7727 12.3371 61.7727C10.8419 61.7727 9.70025 62.884 9.70025 64.6116ZM14.388 64.6217C14.388 65.925 13.5192 66.6827 12.5089 66.6827C11.4986 66.6827 10.6398 65.9149 10.6398 64.6116C10.6398 63.3083 11.4986 62.5708 12.5089 62.5708C13.5192 62.5708 14.388 63.3386 14.388 64.6217ZM20.8517 65.8947C20.8113 63.9145 17.5985 64.6318 17.5985 63.3184C17.5985 62.8739 18.0027 62.5506 18.6796 62.5506C19.4171 62.5506 19.8414 62.9547 19.8818 63.5104H20.8012C20.7405 62.4294 19.9323 61.7727 18.7099 61.7727C17.4773 61.7727 16.6792 62.4698 16.6792 63.3184C16.6792 65.3794 19.9525 64.6621 19.9525 65.8947C19.9525 66.3493 19.5484 66.713 18.821 66.713C18.0431 66.713 17.5682 66.3089 17.5177 65.7735H16.568C16.6287 66.7837 17.5379 67.491 18.8311 67.491C20.0535 67.491 20.8517 66.804 20.8517 65.8947ZM21.806 64.6217C21.806 66.3796 22.9274 67.491 24.5035 67.491C25.8775 67.491 26.7767 66.7231 27.0595 65.6219H26.0695C25.8674 66.319 25.3218 66.713 24.5035 66.713C23.4932 66.713 22.7456 65.9957 22.7456 64.6217C22.7456 63.2679 23.4932 62.5506 24.5035 62.5506C25.3218 62.5506 25.8775 62.9749 26.0695 63.6417H27.0595C26.7767 62.4799 25.8775 61.7727 24.5035 61.7727C22.9274 61.7727 21.806 62.884 21.806 64.6217ZM27.6296 61.8636L29.8017 67.4H30.8726L33.0447 61.8636H32.0648L30.3473 66.5514L28.6197 61.8636H27.6296ZM33.9494 67.4H34.8688V61.8636H33.9494V67.4ZM34.4243 60.9645C34.7577 60.9645 35.0304 60.6917 35.0304 60.3381C35.0304 59.9845 34.7577 59.7117 34.4243 59.7117C34.0707 59.7117 33.7979 59.9845 33.7979 60.3381C33.7979 60.6917 34.0707 60.9645 34.4243 60.9645ZM36.6378 65.8846C36.6378 66.9959 37.1934 67.4 38.1734 67.4H39.0018V66.6221H38.3249C37.7592 66.6221 37.5571 66.4301 37.5571 65.8846V62.6213H39.0018V61.8636H37.5571V60.4694H36.6378V61.8636H35.9204V62.6213H36.6378V65.8846ZM46.6423 67.4707C48.0466 67.4707 48.8346 65.8543 48.8346 64.2984C48.8346 62.298 47.4505 60.924 45.1672 60.924C42.197 60.924 40.0653 63.177 40.0653 66.0563C40.0653 68.1072 41.51 69.4105 43.6922 69.4105C44.3893 69.4105 45.0662 69.2893 45.6724 69.0367L45.5511 68.4103C45.0359 68.6528 44.4297 68.7538 43.8741 68.7538C41.9747 68.7538 40.823 67.7738 40.8331 65.9755C40.8331 63.5003 42.6112 61.5706 45.0561 61.5706C46.9858 61.5706 48.087 62.591 48.087 64.3489C48.087 65.4097 47.6526 66.8444 46.7837 66.8444C46.2685 66.8444 46.1876 66.4605 46.2786 65.8846L46.7837 62.9648H45.9856L45.8744 63.5912C45.6522 63.1063 45.2177 62.8638 44.5813 62.8638C43.1062 62.8638 42.0959 64.2277 42.0959 65.733C42.0959 66.7837 42.7021 67.4707 43.7427 67.4707C44.4499 67.4707 45.1369 67.1171 45.5511 66.5312C45.6017 67.0969 45.9553 67.4707 46.6423 67.4707ZM45.6724 64.9046C45.6118 65.9452 44.9046 66.7534 44.0155 66.7534C43.3083 66.7534 42.9547 66.2786 42.9547 65.5916C42.9547 64.5914 43.571 63.571 44.5813 63.571C45.3693 63.571 45.733 64.1671 45.6724 64.9046ZM50.0035 64.6116C50.0035 66.3291 51.1451 67.491 52.6302 67.491C53.6405 67.491 54.3578 66.9555 54.6912 66.3594V67.5213C54.6912 68.7033 53.9537 69.3297 52.9737 69.3297C52.0645 69.3297 51.4078 68.8751 51.2057 68.2083H50.2964C50.4783 69.3903 51.5189 70.1278 52.9737 70.1278C54.6003 70.1278 55.6207 69.0468 55.6207 67.5213V61.8636H54.6912V62.8739C54.3679 62.2778 53.6405 61.7727 52.6302 61.7727C51.1451 61.7727 50.0035 62.884 50.0035 64.6116ZM54.6912 64.6217C54.6912 65.925 53.8224 66.6827 52.8121 66.6827C51.8018 66.6827 50.943 65.9149 50.943 64.6116C50.943 63.3083 51.8018 62.5708 52.8121 62.5708C53.8224 62.5708 54.6912 63.3386 54.6912 64.6217ZM65.1658 67.4H66.075V64.1368C66.075 62.5506 65.095 61.7626 63.8322 61.7626C62.9835 61.7626 62.1955 62.197 61.8722 62.9951C61.5085 62.1667 60.7508 61.7626 59.8415 61.7626C59.1141 61.7626 58.4574 62.0758 58.0937 62.6617V61.8636H57.1743V67.4H58.0937V64.3489C58.0937 63.1568 58.7302 62.5607 59.6597 62.5607C60.5689 62.5607 61.1751 63.1366 61.1751 64.2681V67.4H62.0844V64.3489C62.0844 63.1568 62.7208 62.5607 63.6503 62.5607C64.5596 62.5607 65.1658 63.1366 65.1658 64.2681V67.4ZM67.2396 64.6116C67.2396 66.3291 68.3812 67.491 69.8563 67.491C70.8767 67.491 71.594 66.9656 71.9274 66.3695V67.4H72.8568V61.8636H71.9274V62.8739C71.6041 62.298 70.8969 61.7727 69.8664 61.7727C68.3812 61.7727 67.2396 62.884 67.2396 64.6116ZM71.9274 64.6217C71.9274 65.925 71.0585 66.6827 70.0482 66.6827C69.0379 66.6827 68.1792 65.9149 68.1792 64.6116C68.1792 63.3083 69.0379 62.5708 70.0482 62.5708C71.0585 62.5708 71.9274 63.3386 71.9274 64.6217ZM74.4105 67.4H75.3298V61.8636H74.4105V67.4ZM74.8853 60.9645C75.2187 60.9645 75.4915 60.6917 75.4915 60.3381C75.4915 59.9845 75.2187 59.7117 74.8853 59.7117C74.5317 59.7117 74.2589 59.9845 74.2589 60.3381C74.2589 60.6917 74.5317 60.9645 74.8853 60.9645ZM76.8968 67.4H77.8161V59.9239H76.8968V67.4ZM80.2822 66.8343C80.2822 66.4807 80.0094 66.2079 79.676 66.2079C79.3224 66.2079 79.0496 66.4807 79.0496 66.8343C79.0496 67.1879 79.3224 67.4606 79.676 67.4606C80.0094 67.4606 80.2822 67.1879 80.2822 66.8343ZM81.1607 64.6217C81.1607 66.3796 82.2822 67.491 83.8582 67.491C85.2322 67.491 86.1314 66.7231 86.4143 65.6219H85.4242C85.2221 66.319 84.6766 66.713 83.8582 66.713C82.8479 66.713 82.1003 65.9957 82.1003 64.6217C82.1003 63.2679 82.8479 62.5506 83.8582 62.5506C84.6766 62.5506 85.2322 62.9749 85.4242 63.6417H86.4143C86.1314 62.4799 85.2322 61.7727 83.8582 61.7727C82.2822 61.7727 81.1607 62.884 81.1607 64.6217ZM92.8945 64.6217C92.8945 62.8739 91.6721 61.7727 90.096 61.7727C88.5301 61.7727 87.2975 62.8739 87.2975 64.6217C87.2975 66.3796 88.4896 67.491 90.0556 67.491C91.6317 67.491 92.8945 66.3796 92.8945 64.6217ZM88.2371 64.6217C88.2371 63.2275 89.116 62.5708 90.0859 62.5708C91.0356 62.5708 91.9549 63.2275 91.9549 64.6217C91.9549 66.026 91.0154 66.6827 90.0556 66.6827C89.0958 66.6827 88.2371 66.026 88.2371 64.6217ZM102.095 67.4H103.004V64.1368C103.004 62.5506 102.024 61.7626 100.761 61.7626C99.9125 61.7626 99.1245 62.197 98.8012 62.9951C98.4375 62.1667 97.6798 61.7626 96.7705 61.7626C96.0431 61.7626 95.3864 62.0758 95.0227 62.6617V61.8636H94.1033V67.4H95.0227V64.3489C95.0227 63.1568 95.6592 62.5607 96.5886 62.5607C97.4979 62.5607 98.1041 63.1366 98.1041 64.2681V67.4H99.0133V64.3489C99.0133 63.1568 99.6498 62.5607 100.579 62.5607C101.489 62.5607 102.095 63.1366 102.095 64.2681V67.4Z" fill="white"/>
</svg>
