<svg width="22" height="22" viewBox="0 0 22 22" fill="none" xmlns="http://www.w3.org/2000/svg">
<path d="M21.5403 13.3571L20.1928 12.0096C20.3461 11.695 20.4267 11.35 20.4286 11C20.4286 10.5338 20.2903 10.0781 20.0313 9.69044C19.7723 9.30281 19.4042 9.00069 18.9735 8.82228C18.5427 8.64387 18.0688 8.59719 17.6116 8.68815C17.1543 8.7791 16.7343 9.00359 16.4047 9.33324C16.075 9.6629 15.8505 10.0829 15.7596 10.5401C15.6686 10.9974 15.7153 11.4713 15.8937 11.902C16.0721 12.3327 16.3742 12.7009 16.7619 12.9599C17.1495 13.2189 17.6052 13.3571 18.0714 13.3571C18.4216 13.3554 18.767 13.2748 19.0818 13.1214L20.4286 14.4681V20.4286H15.7143V18.0714C15.7126 16.6132 15.1326 15.2153 14.1015 14.1842C13.0704 13.1531 11.6725 12.5731 10.2143 12.5714H5.5C4.04182 12.5731 2.64384 13.1531 1.61275 14.1842C0.58166 15.2153 0.00166364 16.6132 0 18.0714V22H22V14.4681C22.0006 14.2618 21.9602 14.0573 21.8813 13.8666C21.8025 13.6759 21.6866 13.5028 21.5403 13.3571ZM1.57143 18.0714C1.57268 17.0299 1.98698 16.0314 2.72346 15.2949C3.45994 14.5584 4.45846 14.1441 5.5 14.1429H10.2143C11.2558 14.1441 12.2543 14.5584 12.9908 15.2949C13.7273 16.0314 14.1416 17.0299 14.1428 18.0714V20.4286H1.57143V18.0714Z" fill="black"/>
<path d="M5.50005 13.3571C1.57148 13.3571 0.523861 18.5952 0.785766 21.2143H14.9286C14.9286 13.3571 11 13.3571 5.50005 13.3571Z" fill="black"/>
<path d="M7.85718 1.57143C8.63418 1.57143 9.39372 1.80183 10.0398 2.23351C10.6858 2.66519 11.1894 3.27875 11.4867 3.9966C11.784 4.71445 11.8618 5.50435 11.7103 6.26642C11.5587 7.02849 11.1845 7.72849 10.6351 8.27792C10.0857 8.82734 9.38567 9.2015 8.6236 9.35308C7.86154 9.50467 7.07163 9.42687 6.35378 9.12952C5.63593 8.83218 5.02237 8.32864 4.59069 7.68259C4.15901 7.03654 3.92861 6.27699 3.92861 5.5C3.92861 4.45808 4.34251 3.45883 5.07926 2.72208C5.81601 1.98533 6.81526 1.57143 7.85718 1.57143ZM7.85718 0C6.76938 0 5.70601 0.322569 4.80154 0.926917C3.89707 1.53126 3.19212 2.39025 2.77584 3.39524C2.35956 4.40023 2.25064 5.5061 2.46286 6.57299C2.67508 7.63989 3.1989 8.61989 3.96809 9.38908C4.73728 10.1583 5.71729 10.6821 6.78418 10.8943C7.85108 11.1065 8.95694 10.9976 9.96194 10.5813C10.9669 10.165 11.8259 9.4601 12.4303 8.55563C13.0346 7.65116 13.3572 6.58779 13.3572 5.5C13.3572 4.04131 12.7777 2.64236 11.7463 1.61091C10.7148 0.579462 9.31587 0 7.85718 0Z" fill="black"/>
</svg>
