<svg width="28" height="28" viewBox="0 0 28 28" fill="none" xmlns="http://www.w3.org/2000/svg">
<path d="M17.7917 15.1667C18.9186 15.1667 19.8333 16.0802 19.8333 17.2084V22.4619C19.8333 23.0033 19.6182 23.5226 19.2353 23.9055C18.8524 24.2884 18.3331 24.5035 17.7917 24.5035H4.37498C3.8335 24.5035 3.31419 24.2884 2.93131 23.9055C2.54842 23.5226 2.33332 23.0033 2.33332 22.4619V17.2084C2.33332 16.0802 3.24682 15.1667 4.37498 15.1667H17.7917ZM24.5 17.3775V23.625C24.5023 23.8483 24.4191 24.064 24.2675 24.2279C24.1159 24.3919 23.9074 24.4917 23.6846 24.5069C23.4619 24.5221 23.2417 24.4516 23.0693 24.3097C22.8968 24.1679 22.7851 23.9655 22.757 23.744L22.75 23.625V17.3904C23.3249 17.5346 23.927 17.5306 24.5 17.3787V17.3775ZM23.625 11.774C24.2154 11.774 24.7815 12.0085 25.199 12.426C25.6165 12.8435 25.851 13.4096 25.851 14C25.851 14.5904 25.6165 15.1566 25.199 15.574C24.7815 15.9915 24.2154 16.226 23.625 16.226C23.0346 16.226 22.4684 15.9915 22.051 15.574C21.6335 15.1566 21.399 14.5904 21.399 14C21.399 13.4096 21.6335 12.8435 22.051 12.426C22.4684 12.0085 23.0346 11.774 23.625 11.774ZM17.7858 3.49652C18.914 3.49652 19.8275 4.41002 19.8275 5.53819V10.7917C19.8275 11.3332 19.6124 11.8525 19.2295 12.2354C18.8466 12.6183 18.3273 12.8334 17.7858 12.8334H4.36915C3.82767 12.8334 3.30836 12.6183 2.92547 12.2354C2.54259 11.8525 2.32748 11.3332 2.32748 10.7917V5.53819C2.32723 5.02541 2.51995 4.53132 2.86731 4.15412C3.21468 3.77693 3.69126 3.54426 4.20232 3.50235L4.36915 3.49652H17.7858ZM23.625 3.50002C23.8364 3.50003 24.0407 3.5766 24.2001 3.71558C24.3594 3.85456 24.4631 4.04654 24.4918 4.25602L24.5 4.37502V10.6109C23.927 10.459 23.3249 10.455 22.75 10.5992V4.37502C22.75 4.14296 22.8422 3.9204 23.0063 3.7563C23.1704 3.59221 23.3929 3.50002 23.625 3.50002Z" fill="#FC257E"/>
</svg>
