<svg width="112" height="87" viewBox="0 0 112 87" fill="none" xmlns="http://www.w3.org/2000/svg">
<rect width="112" height="87" rx="4" fill="#A41BE4"/>
<path d="M56.125 23C48.877 23 43 28.877 43 36.125C43 43.373 48.877 49.25 56.125 49.25C63.373 49.25 69.25 43.373 69.25 36.125C69.25 28.877 63.373 23 56.125 23ZM62.4326 32.8936C62.4414 33.0312 62.4414 33.1748 62.4414 33.3154C62.4414 37.6162 59.166 42.5703 53.1807 42.5703C51.335 42.5703 49.624 42.0342 48.1826 41.1113C48.4463 41.1406 48.6982 41.1523 48.9678 41.1523C50.4912 41.1523 51.8916 40.6367 53.0078 39.7637C51.5781 39.7344 50.377 38.7969 49.9668 37.5078C50.4678 37.5811 50.9189 37.5811 51.4346 37.4492C50.6984 37.2997 50.0367 36.8999 49.562 36.3177C49.0872 35.7356 48.8286 35.0071 48.8301 34.2559V34.2148C49.2607 34.458 49.7676 34.6074 50.2979 34.6279C49.8521 34.3308 49.4865 33.9284 49.2335 33.4561C48.9806 32.9839 48.848 32.4566 48.8477 31.9209C48.8477 31.3145 49.0059 30.7607 49.29 30.2803C50.1071 31.2861 51.1267 32.1088 52.2826 32.6948C53.4385 33.2808 54.7047 33.6171 55.999 33.6816C55.5391 31.4697 57.1914 29.6797 59.1777 29.6797C60.1152 29.6797 60.959 30.0723 61.5537 30.7051C62.2891 30.5674 62.9922 30.292 63.6191 29.9229C63.376 30.6758 62.8662 31.3115 62.1895 31.7129C62.8457 31.6426 63.4785 31.4609 64.0645 31.2061C63.6221 31.8564 63.0684 32.4336 62.4326 32.8936Z" fill="white"/>
<path d="M39.0958 69.0931C40.9436 69.0931 41.9805 66.9661 41.9805 64.9189C41.9805 62.2869 40.1593 60.479 37.155 60.479C33.2467 60.479 30.4419 63.4434 30.4419 67.232C30.4419 69.9305 32.3428 71.6454 35.2142 71.6454C36.1314 71.6454 37.0221 71.4859 37.8197 71.1535L37.6601 70.3293C36.9822 70.6484 36.1846 70.7813 35.4534 70.7813C32.9543 70.7813 31.4389 69.4919 31.4521 67.1256C31.4521 63.8688 33.7918 61.3297 37.0088 61.3297C39.5478 61.3297 40.9968 62.6724 40.9968 64.9854C40.9968 66.3812 40.4251 68.2689 39.2819 68.2689C38.604 68.2689 38.4976 67.7637 38.6173 67.006L39.2819 63.1642H38.2317L38.0855 63.9884C37.7931 63.3503 37.2215 63.0313 36.384 63.0313C34.4431 63.0313 33.1138 64.8259 33.1138 66.8066C33.1138 68.1891 33.9114 69.0931 35.2806 69.0931C36.2112 69.0931 37.1151 68.6278 37.6601 67.8568C37.7266 68.6012 38.1919 69.0931 39.0958 69.0931ZM37.8197 65.7165C37.7399 67.0858 36.8094 68.1492 35.6395 68.1492C34.709 68.1492 34.2437 67.5244 34.2437 66.6205C34.2437 65.3045 35.0546 63.9618 36.384 63.9618C37.4209 63.9618 37.8994 64.7461 37.8197 65.7165ZM43.5184 65.331C43.5184 67.5909 45.0206 69.1196 46.9747 69.1196C48.304 69.1196 49.2479 68.4417 49.6866 67.6308V69H50.9095V59.1629H49.6866V63.018C49.1814 62.1805 48.1312 61.5956 46.988 61.5956C45.0206 61.5956 43.5184 63.0579 43.5184 65.331ZM49.6866 65.3443C49.6866 67.0592 48.5433 68.0562 47.214 68.0562C45.8847 68.0562 44.7547 67.0459 44.7547 65.331C44.7547 63.6162 45.8847 62.6458 47.214 62.6458C48.5433 62.6458 49.6866 63.6561 49.6866 65.3443ZM58.1914 67.0193C58.1382 64.4138 53.9109 65.3576 53.9109 63.6295C53.9109 63.0446 54.4427 62.6192 55.3333 62.6192C56.3037 62.6192 56.862 63.1509 56.9152 63.8821H58.1249C58.0451 62.4597 56.9817 61.5956 55.3732 61.5956C53.7514 61.5956 52.7012 62.5129 52.7012 63.6295C52.7012 66.3413 57.0083 65.3975 57.0083 67.0193C57.0083 67.6175 56.4765 68.0961 55.5194 68.0961C54.4958 68.0961 53.871 67.5643 53.8046 66.8598H52.555C52.6348 68.1891 53.8312 69.1196 55.5327 69.1196C57.1412 69.1196 58.1914 68.2157 58.1914 67.0193ZM59.4471 65.3443C59.4471 67.6574 60.9226 69.1196 62.9964 69.1196C64.8043 69.1196 65.9874 68.1093 66.3596 66.6604H65.0569C64.791 67.5776 64.0732 68.0961 62.9964 68.0961C61.6671 68.0961 60.6834 67.1522 60.6834 65.3443C60.6834 63.563 61.6671 62.6192 62.9964 62.6192C64.0732 62.6192 64.8043 63.1775 65.0569 64.0549H66.3596C65.9874 62.5261 64.8043 61.5956 62.9964 61.5956C60.9226 61.5956 59.4471 63.0579 59.4471 65.3443ZM67.1096 61.7153L69.9677 69H71.3768L74.2349 61.7153H72.9454L70.6855 67.8834L68.4124 61.7153H67.1096ZM75.4252 69H76.6349V61.7153H75.4252V69ZM76.05 60.5321C76.4887 60.5321 76.8476 60.1732 76.8476 59.708C76.8476 59.2427 76.4887 58.8838 76.05 58.8838C75.5848 58.8838 75.2258 59.2427 75.2258 59.708C75.2258 60.1732 75.5848 60.5321 76.05 60.5321ZM78.9625 67.006C78.9625 68.4683 79.6937 69 80.9831 69H82.0732V67.9764H81.1825C80.4381 67.9764 80.1722 67.7238 80.1722 67.006V62.7123H82.0732V61.7153H80.1722V59.8808H78.9625V61.7153H78.0187V62.7123H78.9625V67.006Z" fill="white"/>
</svg>
